<mxfile host="app.diagrams.net" agent="Mozilla/5.0 (Windows NT 10.0; Win64; x64) AppleWebKit/537.36 (KHTML, like Gecko) Chrome/119.0.0.0 Safari/537.36" version="25.0.3">
  <diagram name="Page-1" id="_79C6hcb5aNwDmNduT1H">
    <mxGraphModel dx="1877" dy="565" grid="1" gridSize="10" guides="1" tooltips="1" connect="1" arrows="1" fold="1" page="1" pageScale="1" pageWidth="827" pageHeight="1169" math="0" shadow="0">
      <root>
        <mxCell id="0" />
        <mxCell id="1" parent="0" />
        <mxCell id="Jab9HYbwc66JqkoyNNPi-33" style="edgeStyle=orthogonalEdgeStyle;rounded=0;orthogonalLoop=1;jettySize=auto;html=1;exitX=0.25;exitY=1;exitDx=0;exitDy=0;entryX=0.75;entryY=0;entryDx=0;entryDy=0;" parent="1" source="Jab9HYbwc66JqkoyNNPi-1" target="Jab9HYbwc66JqkoyNNPi-12" edge="1">
          <mxGeometry relative="1" as="geometry" />
        </mxCell>
        <mxCell id="Jab9HYbwc66JqkoyNNPi-37" style="edgeStyle=orthogonalEdgeStyle;rounded=0;orthogonalLoop=1;jettySize=auto;html=1;exitX=0.5;exitY=1;exitDx=0;exitDy=0;entryX=0.25;entryY=0;entryDx=0;entryDy=0;" parent="1" source="Jab9HYbwc66JqkoyNNPi-1" target="Jab9HYbwc66JqkoyNNPi-16" edge="1">
          <mxGeometry relative="1" as="geometry" />
        </mxCell>
        <mxCell id="Jab9HYbwc66JqkoyNNPi-1" value="Korisnik" style="swimlane;fontStyle=1;align=center;verticalAlign=top;childLayout=stackLayout;horizontal=1;startSize=26;horizontalStack=0;resizeParent=1;resizeParentMax=0;resizeLast=0;collapsible=1;marginBottom=0;whiteSpace=wrap;html=1;" parent="1" vertex="1">
          <mxGeometry x="-410" y="65" width="160" height="210" as="geometry" />
        </mxCell>
        <mxCell id="Jab9HYbwc66JqkoyNNPi-2" value="id&lt;div&gt;ime&lt;br&gt;&lt;div&gt;&lt;div&gt;prezime&lt;/div&gt;&lt;div&gt;email&lt;/div&gt;&lt;div&gt;lozinka&lt;/div&gt;&lt;div&gt;datumRođenja&lt;/div&gt;&lt;div&gt;pol&lt;/div&gt;&lt;div&gt;omiljeniBioskop&lt;/div&gt;&lt;div&gt;rola&lt;/div&gt;&lt;div&gt;&lt;br&gt;&lt;/div&gt;&lt;div&gt;&lt;br&gt;&lt;/div&gt;&lt;/div&gt;&lt;/div&gt;" style="text;strokeColor=none;fillColor=none;align=left;verticalAlign=top;spacingLeft=4;spacingRight=4;overflow=hidden;rotatable=0;points=[[0,0.5],[1,0.5]];portConstraint=eastwest;whiteSpace=wrap;html=1;" parent="Jab9HYbwc66JqkoyNNPi-1" vertex="1">
          <mxGeometry y="26" width="160" height="144" as="geometry" />
        </mxCell>
        <mxCell id="Jab9HYbwc66JqkoyNNPi-3" value="" style="line;strokeWidth=1;fillColor=none;align=left;verticalAlign=middle;spacingTop=-1;spacingLeft=3;spacingRight=3;rotatable=0;labelPosition=right;points=[];portConstraint=eastwest;strokeColor=inherit;" parent="Jab9HYbwc66JqkoyNNPi-1" vertex="1">
          <mxGeometry y="170" width="160" height="40" as="geometry" />
        </mxCell>
        <mxCell id="Jab9HYbwc66JqkoyNNPi-34" style="edgeStyle=orthogonalEdgeStyle;rounded=0;orthogonalLoop=1;jettySize=auto;html=1;exitX=0.25;exitY=1;exitDx=0;exitDy=0;entryX=0.75;entryY=0;entryDx=0;entryDy=0;" parent="1" source="Jab9HYbwc66JqkoyNNPi-6" target="Jab9HYbwc66JqkoyNNPi-9" edge="1">
          <mxGeometry relative="1" as="geometry" />
        </mxCell>
        <mxCell id="nI1FWuAsT3KNXrNhRNAx-1" style="edgeStyle=orthogonalEdgeStyle;rounded=0;orthogonalLoop=1;jettySize=auto;html=1;exitX=0.75;exitY=1;exitDx=0;exitDy=0;entryX=0.75;entryY=0;entryDx=0;entryDy=0;" edge="1" parent="1" source="Jab9HYbwc66JqkoyNNPi-6" target="Jab9HYbwc66JqkoyNNPi-16">
          <mxGeometry relative="1" as="geometry" />
        </mxCell>
        <mxCell id="Jab9HYbwc66JqkoyNNPi-6" value="Film" style="swimlane;fontStyle=1;align=center;verticalAlign=top;childLayout=stackLayout;horizontal=1;startSize=26;horizontalStack=0;resizeParent=1;resizeParentMax=0;resizeLast=0;collapsible=1;marginBottom=0;whiteSpace=wrap;html=1;" parent="1" vertex="1">
          <mxGeometry x="-110" y="65" width="160" height="200" as="geometry" />
        </mxCell>
        <mxCell id="Jab9HYbwc66JqkoyNNPi-7" value="id&lt;div&gt;naziv&lt;br&gt;&lt;div&gt;&lt;div&gt;režiser&lt;/div&gt;&lt;div&gt;žanr&lt;/div&gt;&lt;div&gt;trajanje&lt;/div&gt;&lt;div&gt;godinaIzdanja&lt;/div&gt;&lt;div&gt;opis&lt;/div&gt;&lt;div&gt;ocena&lt;/div&gt;&lt;div&gt;&lt;br&gt;&lt;/div&gt;&lt;div&gt;&lt;br&gt;&lt;/div&gt;&lt;/div&gt;&lt;/div&gt;" style="text;strokeColor=none;fillColor=none;align=left;verticalAlign=top;spacingLeft=4;spacingRight=4;overflow=hidden;rotatable=0;points=[[0,0.5],[1,0.5]];portConstraint=eastwest;whiteSpace=wrap;html=1;" parent="Jab9HYbwc66JqkoyNNPi-6" vertex="1">
          <mxGeometry y="26" width="160" height="124" as="geometry" />
        </mxCell>
        <mxCell id="Jab9HYbwc66JqkoyNNPi-8" value="" style="line;strokeWidth=1;fillColor=none;align=left;verticalAlign=middle;spacingTop=-1;spacingLeft=3;spacingRight=3;rotatable=0;labelPosition=right;points=[];portConstraint=eastwest;strokeColor=inherit;" parent="Jab9HYbwc66JqkoyNNPi-6" vertex="1">
          <mxGeometry y="150" width="160" height="50" as="geometry" />
        </mxCell>
        <mxCell id="Jab9HYbwc66JqkoyNNPi-9" value="Projekcija" style="swimlane;fontStyle=1;align=center;verticalAlign=top;childLayout=stackLayout;horizontal=1;startSize=26;horizontalStack=0;resizeParent=1;resizeParentMax=0;resizeLast=0;collapsible=1;marginBottom=0;whiteSpace=wrap;html=1;" parent="1" vertex="1">
          <mxGeometry x="-410" y="360" width="160" height="170" as="geometry" />
        </mxCell>
        <mxCell id="Jab9HYbwc66JqkoyNNPi-10" value="&lt;div&gt;&lt;div&gt;&lt;div&gt;id&lt;/div&gt;&lt;/div&gt;&lt;/div&gt;&lt;div&gt;filmId&lt;/div&gt;&lt;div&gt;datum&lt;/div&gt;&lt;div&gt;vreme&lt;/div&gt;&lt;div&gt;bioskop&lt;/div&gt;&lt;div&gt;sala&lt;/div&gt;&lt;div&gt;dostupna sedišta&lt;/div&gt;&lt;div&gt;&lt;br&gt;&lt;/div&gt;" style="text;strokeColor=none;fillColor=none;align=left;verticalAlign=top;spacingLeft=4;spacingRight=4;overflow=hidden;rotatable=0;points=[[0,0.5],[1,0.5]];portConstraint=eastwest;whiteSpace=wrap;html=1;" parent="Jab9HYbwc66JqkoyNNPi-9" vertex="1">
          <mxGeometry y="26" width="160" height="114" as="geometry" />
        </mxCell>
        <mxCell id="Jab9HYbwc66JqkoyNNPi-11" value="" style="line;strokeWidth=1;fillColor=none;align=left;verticalAlign=middle;spacingTop=-1;spacingLeft=3;spacingRight=3;rotatable=0;labelPosition=right;points=[];portConstraint=eastwest;strokeColor=inherit;" parent="Jab9HYbwc66JqkoyNNPi-9" vertex="1">
          <mxGeometry y="140" width="160" height="30" as="geometry" />
        </mxCell>
        <mxCell id="Jab9HYbwc66JqkoyNNPi-12" value="Karta" style="swimlane;fontStyle=1;align=center;verticalAlign=top;childLayout=stackLayout;horizontal=1;startSize=26;horizontalStack=0;resizeParent=1;resizeParentMax=0;resizeLast=0;collapsible=1;marginBottom=0;whiteSpace=wrap;html=1;" parent="1" vertex="1">
          <mxGeometry x="-730" y="360" width="160" height="140" as="geometry" />
        </mxCell>
        <mxCell id="Jab9HYbwc66JqkoyNNPi-13" value="&lt;div&gt;&lt;div&gt;&lt;div&gt;Id&lt;/div&gt;&lt;/div&gt;&lt;/div&gt;&lt;div&gt;korisnikId&lt;/div&gt;&lt;div&gt;projekcijaId&lt;/div&gt;&lt;div&gt;brojSedišta&lt;/div&gt;&lt;div&gt;cena&lt;/div&gt;" style="text;strokeColor=none;fillColor=none;align=left;verticalAlign=top;spacingLeft=4;spacingRight=4;overflow=hidden;rotatable=0;points=[[0,0.5],[1,0.5]];portConstraint=eastwest;whiteSpace=wrap;html=1;" parent="Jab9HYbwc66JqkoyNNPi-12" vertex="1">
          <mxGeometry y="26" width="160" height="84" as="geometry" />
        </mxCell>
        <mxCell id="Jab9HYbwc66JqkoyNNPi-14" value="" style="line;strokeWidth=1;fillColor=none;align=left;verticalAlign=middle;spacingTop=-1;spacingLeft=3;spacingRight=3;rotatable=0;labelPosition=right;points=[];portConstraint=eastwest;strokeColor=inherit;" parent="Jab9HYbwc66JqkoyNNPi-12" vertex="1">
          <mxGeometry y="110" width="160" height="30" as="geometry" />
        </mxCell>
        <mxCell id="Jab9HYbwc66JqkoyNNPi-16" value="Omiljeni film" style="swimlane;fontStyle=1;align=center;verticalAlign=top;childLayout=stackLayout;horizontal=1;startSize=26;horizontalStack=0;resizeParent=1;resizeParentMax=0;resizeLast=0;collapsible=1;marginBottom=0;whiteSpace=wrap;html=1;" parent="1" vertex="1">
          <mxGeometry x="-90" y="390" width="160" height="110" as="geometry" />
        </mxCell>
        <mxCell id="Jab9HYbwc66JqkoyNNPi-17" value="&lt;div&gt;korisnikId&lt;/div&gt;&lt;div&gt;filmId&lt;/div&gt;" style="text;strokeColor=none;fillColor=none;align=left;verticalAlign=top;spacingLeft=4;spacingRight=4;overflow=hidden;rotatable=0;points=[[0,0.5],[1,0.5]];portConstraint=eastwest;whiteSpace=wrap;html=1;" parent="Jab9HYbwc66JqkoyNNPi-16" vertex="1">
          <mxGeometry y="26" width="160" height="54" as="geometry" />
        </mxCell>
        <mxCell id="Jab9HYbwc66JqkoyNNPi-18" value="" style="line;strokeWidth=1;fillColor=none;align=left;verticalAlign=middle;spacingTop=-1;spacingLeft=3;spacingRight=3;rotatable=0;labelPosition=right;points=[];portConstraint=eastwest;strokeColor=inherit;" parent="Jab9HYbwc66JqkoyNNPi-16" vertex="1">
          <mxGeometry y="80" width="160" height="30" as="geometry" />
        </mxCell>
        <mxCell id="Jab9HYbwc66JqkoyNNPi-19" value="Administrator" style="swimlane;fontStyle=1;align=center;verticalAlign=top;childLayout=stackLayout;horizontal=1;startSize=26;horizontalStack=0;resizeParent=1;resizeParentMax=0;resizeLast=0;collapsible=1;marginBottom=0;whiteSpace=wrap;html=1;" parent="1" vertex="1">
          <mxGeometry x="-680" y="130" width="160" height="56" as="geometry" />
        </mxCell>
        <mxCell id="Jab9HYbwc66JqkoyNNPi-21" value="" style="line;strokeWidth=1;fillColor=none;align=left;verticalAlign=middle;spacingTop=-1;spacingLeft=3;spacingRight=3;rotatable=0;labelPosition=right;points=[];portConstraint=eastwest;strokeColor=inherit;" parent="Jab9HYbwc66JqkoyNNPi-19" vertex="1">
          <mxGeometry y="26" width="160" height="30" as="geometry" />
        </mxCell>
        <mxCell id="Jab9HYbwc66JqkoyNNPi-26" value="1...n" style="text;html=1;align=center;verticalAlign=middle;resizable=0;points=[];autosize=1;strokeColor=none;fillColor=none;" parent="1" vertex="1">
          <mxGeometry x="-670" y="330" width="50" height="30" as="geometry" />
        </mxCell>
        <mxCell id="Jab9HYbwc66JqkoyNNPi-28" value="1...n" style="text;html=1;align=center;verticalAlign=middle;resizable=0;points=[];autosize=1;strokeColor=none;fillColor=none;" parent="1" vertex="1">
          <mxGeometry x="-290" y="330" width="50" height="30" as="geometry" />
        </mxCell>
        <mxCell id="Jab9HYbwc66JqkoyNNPi-30" value="1...n" style="text;html=1;align=center;verticalAlign=middle;resizable=0;points=[];autosize=1;strokeColor=none;fillColor=none;" parent="1" vertex="1">
          <mxGeometry x="-575" y="410" width="50" height="30" as="geometry" />
        </mxCell>
        <mxCell id="Jab9HYbwc66JqkoyNNPi-35" style="edgeStyle=orthogonalEdgeStyle;rounded=0;orthogonalLoop=1;jettySize=auto;html=1;exitX=0;exitY=0.5;exitDx=0;exitDy=0;entryX=0.999;entryY=0.67;entryDx=0;entryDy=0;entryPerimeter=0;" parent="1" source="Jab9HYbwc66JqkoyNNPi-10" target="Jab9HYbwc66JqkoyNNPi-13" edge="1">
          <mxGeometry relative="1" as="geometry" />
        </mxCell>
        <mxCell id="Jab9HYbwc66JqkoyNNPi-38" value="0...n" style="text;html=1;align=center;verticalAlign=middle;resizable=0;points=[];autosize=1;strokeColor=none;fillColor=none;" parent="1" vertex="1">
          <mxGeometry x="-100" y="360" width="50" height="30" as="geometry" />
        </mxCell>
        <mxCell id="Jab9HYbwc66JqkoyNNPi-39" value="Extends" style="endArrow=block;endSize=16;endFill=0;html=1;rounded=0;exitX=1;exitY=0.5;exitDx=0;exitDy=0;" parent="1" source="Jab9HYbwc66JqkoyNNPi-19" edge="1">
          <mxGeometry width="160" relative="1" as="geometry">
            <mxPoint x="-510" y="230" as="sourcePoint" />
            <mxPoint x="-410" y="158" as="targetPoint" />
          </mxGeometry>
        </mxCell>
        <mxCell id="nI1FWuAsT3KNXrNhRNAx-2" value="0...n" style="text;html=1;align=center;verticalAlign=middle;resizable=0;points=[];autosize=1;strokeColor=none;fillColor=none;" vertex="1" parent="1">
          <mxGeometry x="30" y="360" width="50" height="30" as="geometry" />
        </mxCell>
      </root>
    </mxGraphModel>
  </diagram>
</mxfile>
